<?xml version="1.0" encoding="utf-8"?>
<!-- Generator: Adobe Illustrator 16.0.0, SVG Export Plug-In . SVG Version: 6.00 Build 0)  -->
<!DOCTYPE svg PUBLIC "-//W3C//DTD SVG 1.1//EN" "http://www.w3.org/Graphics/SVG/1.1/DTD/svg11.dtd">
<svg version="1.1" id="Layer_1" xmlns="http://www.w3.org/2000/svg" xmlns:xlink="http://www.w3.org/1999/xlink" x="0px" y="0px"
	 width="400px" height="400px" viewBox="0 0 400 400" enable-background="new 0 0 400 400" xml:space="preserve">
<g>
	<path d="M400,320c0,44.183-35.817,80-80,80H80c-44.183,0-80-35.817-80-80V80C0,35.817,35.817,0,80,0h240c44.183,0,80,35.817,80,80
		V320z"/>
	<linearGradient id="SVGID_1_" gradientUnits="userSpaceOnUse" x1="76.5483" y1="20.8296" x2="336.8452" y2="400.9837">
		<stop  offset="0" style="stop-color:#00B8FF"/>
		<stop  offset="0.0682" style="stop-color:#19C5EB"/>
		<stop  offset="0.2149" style="stop-color:#4ADEC3"/>
		<stop  offset="0.3437" style="stop-color:#6EF0A7"/>
		<stop  offset="0.4485" style="stop-color:#84FB95"/>
		<stop  offset="0.5161" style="stop-color:#8CFF8F"/>
		<stop  offset="0.6138" style="stop-color:#9FEC77"/>
		<stop  offset="0.8185" style="stop-color:#D0BC3B"/>
		<stop  offset="1" style="stop-color:#FF8D00"/>
	</linearGradient>
	<path fill="url(#SVGID_1_)" d="M293.197,98.157L99.887,26.48c-7.167-2.646-13.642-2.375-18.182,0.758
		c-4.708,3.256-7.335,9.522-7.377,17.613l-0.987,209.285c-0.107,19.82,15.238,42.268,33.462,49.015l0.03,15.828l38.611,12.274
		l0.497-16.227l154.341,59.863c7.02,2.604,13.473,2.332,18.014-0.801c4.706-3.278,7.313-9.521,7.357-17.613l1.008-209.283
		C326.744,127.371,311.42,104.925,293.197,98.157z M264.612,236.375c-19.465,1.935-40.104,6.097-44.183,8.914
		c-3.994,2.92-15.006,21.206-23.519,39.156l-12.592,26.547l-9.563-27.786c-4.604-13.305-18.142-50.257-25.581-61.103l19.801-13.558
		c5.801,8.471,13.242,26.147,19.083,41.283c5.844-9.984,12.611-19.884,18.499-24.088c6.032-4.269,17.822-7.379,29.258-9.522
		c-12.025-10.867-26.021-24.318-31.886-32.875c-5.823-8.469-13.264-26.146-19.106-41.26c-5.843,9.984-12.654,19.908-18.518,24.088
		c-11.793,8.323-45.589,12.214-55.657,13.2l-2.354-23.854c19.442-1.914,40.06-6.096,44.139-8.913
		c4.016-2.921,15.007-21.229,23.52-39.158l12.611-26.545l9.563,27.785c4.583,13.306,18.142,50.236,25.582,61.103
		c7.419,10.823,36.74,36.486,47.438,45.482l21.755,18.309L264.612,236.375z"/>
</g>
</svg>
