<?xml version="1.0" encoding="utf-8"?>
<!-- Generator: Adobe Illustrator 16.0.0, SVG Export Plug-In . SVG Version: 6.00 Build 0)  -->
<!DOCTYPE svg PUBLIC "-//W3C//DTD SVG 1.1//EN" "http://www.w3.org/Graphics/SVG/1.1/DTD/svg11.dtd">
<svg version="1.1" id="Layer_1" xmlns="http://www.w3.org/2000/svg" xmlns:xlink="http://www.w3.org/1999/xlink" x="0px" y="0px"
	 width="1488.235px" height="270.675px" viewBox="0 0 1488.235 270.675" enable-background="new 0 0 1488.235 270.675"
	 xml:space="preserve">
<g>
	<g>
		<g>
			<path fill="#FFFFFF" d="M200.622,238.603L200.622,238.603c-1.699,0-3.426-0.26-5.139-0.779l-131.07-39.619
				c-7.961-2.401-16.203-10.645-16.203-20.271V46.947c0-8.698,6.643-15.255,15.451-15.255c1.729,0,3.473,0.262,5.185,0.781
				L200.439,72.09c8.636,2.603,15.146,11.319,15.146,20.271V223.35c0,4.21-1.512,8.073-4.263,10.879
				C208.559,237.048,204.756,238.603,200.622,238.603z M64.46,48.124l-0.001,129.81c0,1.089,2.154,3.961,4.653,4.714l130.223,39.364
				V92.361c0-1.635-1.653-4.132-3.582-4.714L64.46,48.124z M165.41,188.921c-1.216,0-2.453-0.189-3.675-0.56l-63.414-18.96
				c-5.397-1.629-11.112-7.002-11.112-13.768V92.913c0-6.469,5.337-11.536,12.149-11.536c1.279,0,2.549,0.188,3.772,0.561
				l62.89,18.962c6.022,1.811,10.566,7.729,10.566,13.761v62.723C176.586,183.958,171.781,188.921,165.41,188.921z M103.46,153.976
				l56.876,17.007V116.16L103.46,99.007V153.976z"/>
		</g>
		<g>
			<path fill="#FFFFFF" d="M135.146,270.296C60.627,270.296,0,209.669,0,135.146C0,60.628,60.627,0,135.146,0
				c74.523,0,135.149,60.628,135.149,135.146C270.296,209.669,209.67,270.296,135.146,270.296z M135.146,20.311
				c-63.319,0-114.834,51.517-114.834,114.835c0,63.322,51.515,114.842,114.834,114.842c63.322,0,114.837-51.52,114.837-114.842
				C249.983,71.827,198.469,20.311,135.146,20.311z"/>
		</g>
	</g>
	<path fill="#FFFFFF" d="M356.07,210.835c-13.948,0-26.262-3.114-36.938-9.349c-10.679-6.231-19.047-14.774-25.104-25.628
		c-6.06-10.852-9.087-23.208-9.087-37.066c0-13.86,3.027-26.15,9.087-36.873c6.058-10.722,14.426-19.133,25.104-25.235
		c10.677-6.101,22.989-9.152,36.938-9.152c13.944,0,26.258,3.052,36.937,9.152c10.677,6.103,19.045,14.514,25.104,25.235
		c6.058,10.722,9.088,23.012,9.088,36.873c0,13.858-3.03,26.215-9.088,37.066c-6.061,10.854-14.429,19.396-25.104,25.628
		C382.328,207.721,370.016,210.835,356.07,210.835z M356.07,190.438c9.587,0,18.043-2.135,25.364-6.405
		c7.322-4.271,13.054-10.285,17.194-18.045c4.139-7.758,6.21-16.822,6.21-27.195c0-10.373-2.071-19.373-6.21-27
		c-4.142-7.627-9.872-13.511-17.194-17.652c-7.321-4.139-15.777-6.21-25.364-6.21c-9.502,0-17.937,2.071-25.302,6.21
		c-7.366,4.142-13.119,10.025-17.259,17.652c-4.142,7.628-6.211,16.628-6.211,27c0,10.373,2.069,19.438,6.211,27.195
		c4.14,7.76,9.893,13.773,17.259,18.045S346.568,190.438,356.07,190.438z"/>
	<path fill="#FFFFFF" d="M564.098,99.954c-5.76-10.63-13.391-18.71-22.891-24.25c-9.5-5.529-19.869-8.3-31.109-8.3
		c-10.729,0-20.75,2.55-30.08,7.65c-5.891,3.22-11.079,7.229-15.561,12.029c-2.609,2.801-4.979,5.87-7.119,9.21
		c-5.801,9.07-8.7,19.375-8.7,31.316l15.819,0.334h0.131c0-7,1.979-14.234,5.949-20.334c3.971-6.102,9.181-10.863,15.63-14.483
		c6.45-3.62,13.381-5.382,20.79-5.382c12.37,0,22.62,4.194,30.721,12.515c8.109,8.33,12.16,21.173,12.16,38.522
		c0,17.26-4.07,30.111-12.221,38.521c-8.149,8.42-18.37,12.642-30.66,12.642h-17.1v20.89l20.239,0.131
		c11.41,0,21.87-2.76,31.38-8.301c9.5-5.529,17.08-13.68,22.75-24.449c5.66-10.771,8.5-23.909,8.5-39.42
		C572.729,123.534,569.848,110.595,564.098,99.954z M441.857,69.944v188.5l23,12.229V69.944H441.857z"/>
	<path fill="#FFFFFF" d="M634.946,147.813v-19.874h67.347l-3.922,6.537c0-0.522,0-1.023,0-1.503c0-0.479,0-0.936,0-1.373
		c0-8.019-1.68-15.363-5.034-22.032c-3.356-6.668-8.348-12.006-14.971-16.017c-6.626-4.009-14.82-6.015-24.582-6.015
		c-9.852,0-18.523,2.092-26.021,6.276s-13.336,10.09-17.521,17.717c-4.185,7.628-6.276,16.716-6.276,27.262
		c0,10.723,2.027,19.963,6.08,27.719c4.054,7.761,9.827,13.729,17.325,17.914c7.495,4.185,16.387,6.275,26.673,6.275
		c7.322,0,13.685-0.762,19.09-2.287c5.403-1.525,9.872-3.574,13.402-6.146c3.53-2.57,6.21-5.381,8.041-8.434
		c1.83-3.051,2.919-6.102,3.269-9.152h22.229c-0.438,5.578-2.181,11.113-5.229,16.605c-3.053,5.49-7.367,10.481-12.943,14.971
		c-5.58,4.49-12.422,8.086-20.528,10.787s-17.435,4.054-27.98,4.054c-13.947,0-26.237-3.052-36.872-9.153
		c-10.636-6.1-18.98-14.557-25.038-25.365c-6.061-10.808-9.087-23.229-9.087-37.265c0-14.207,3.05-26.693,9.151-37.46
		c6.102-10.765,14.514-19.198,25.235-25.301c10.722-6.1,22.967-9.152,36.741-9.152c14.032,0,26.191,3.053,36.479,9.152
		C700.287,82.655,708.22,91,713.8,101.591c5.577,10.591,8.368,22.643,8.368,36.153c0,1.396-0.045,3.227-0.131,5.491
		c-0.088,2.269-0.219,3.792-0.394,4.576h-86.697V147.813z"/>
	<path fill="#FFFFFF" d="M737.204,208.352V69.493h22.228v138.858L737.204,208.352L737.204,208.352z M776.233,75.312
		c8.936-5.272,18.676-7.91,29.223-7.91c10.723,0,20.092,2.049,28.113,6.146c8.018,4.098,14.229,9.959,18.631,17.586
		c4.4,7.629,6.604,16.802,6.604,27.523c0,3.837,0,8.021,0,12.552c0,4.533,0,8.761,0,12.683v64.461h-22.229V141.8
		c0-4.008,0-7.3,0-9.872c0-2.57,0-5.034,0-7.388c0-7.234-1.221-13.554-3.66-18.959c-2.441-5.404-6.275-9.588-11.506-12.553
		c-5.23-2.962-12.074-4.445-20.529-4.445c-7.408,0-14.273,1.896-20.592,5.688"/>
	<path fill="#FFFFFF" d="M999.747,99.954c-5.75-10.63-13.379-18.71-22.879-24.25c-9.5-5.529-19.871-8.3-31.121-8.3
		c-10.719,0-20.738,2.55-30.068,7.65c-5.891,3.22-11.08,7.229-15.561,12.029c-2.621,2.801-4.99,5.87-7.131,9.21
		c-5.789,9.07-8.689,19.375-8.689,31.316l15.82,0.334h0.129c0-7,1.98-14.234,5.951-20.334c3.969-6.102,9.17-10.863,15.629-14.483
		c6.451-3.62,13.381-5.382,20.781-5.382c12.379,0,22.629,4.194,30.729,12.515c8.109,8.33,12.16,21.173,12.16,38.522
		c0,17.26-4.07,30.111-12.221,38.521c-8.16,8.42-18.369,12.642-30.67,12.642h-15.75v21l18.891,0.021
		c11.42,0,21.879-2.76,31.379-8.301c9.5-5.529,17.092-13.68,22.75-24.449c5.672-10.771,8.5-23.909,8.5-39.42
		C1008.377,123.534,1005.508,110.595,999.747,99.954z M877.858,69.944v168.149l0.232,20.351l21.768,11.89V69.944H877.858z"/>
	<path fill="#FFFFFF" d="M1035.834,37.59c-4.098,0-7.648-1.154-10.656-3.465c-3.008-2.309-4.512-5.469-4.512-9.479
		c0-3.923,1.504-7.038,4.512-9.349c3.008-2.309,6.559-3.465,10.656-3.465c4.096,0,7.627,1.156,10.592,3.465
		c2.961,2.311,4.445,5.426,4.445,9.349c0,4.011-1.484,7.171-4.445,9.479C1043.461,36.436,1039.93,37.59,1035.834,37.59z
		 M1024.721,208.352V69.493h21.965v138.858L1024.721,208.352L1024.721,208.352z"/>
	<path fill="#FFFFFF" d="M1112.063,134.477l-0.262,10.591l-54.002-75.575h24.32l45.109,62.369l-13.338-0.393l43.541-61.977h23.928
		l-52.301,72.175l1.438-6.407l51.908,73.09h-24.449l-44.85-61.453l14.645-3.398l-47.854,64.853h-23.928L1112.063,134.477z"/>
	<path fill="#FFFFFF" d="M1228.948,147.813v-19.874h67.346l-3.922,6.537c0-0.522,0-1.023,0-1.503c0-0.479,0-0.936,0-1.373
		c0-8.019-1.68-15.363-5.033-22.032c-3.355-6.668-8.348-12.006-14.971-16.017c-6.627-4.009-14.82-6.015-24.582-6.015
		c-9.852,0-18.523,2.092-26.021,6.276c-7.496,4.184-13.336,10.09-17.52,17.717c-4.184,7.628-6.277,16.716-6.277,27.262
		c0,10.723,2.027,19.963,6.08,27.719c4.055,7.761,9.828,13.729,17.326,17.914c7.494,4.185,16.387,6.275,26.672,6.275
		c7.322,0,13.686-0.762,19.09-2.287s9.873-3.574,13.402-6.146c3.531-2.57,6.211-5.381,8.041-8.434c1.83-3.051,2.92-6.102,3.27-9.152
		h22.229c-0.438,5.578-2.182,11.113-5.23,16.605c-3.053,5.49-7.365,10.481-12.943,14.971c-5.58,4.49-12.422,8.086-20.527,10.787
		s-17.436,4.054-27.98,4.054c-13.947,0-26.238-3.052-36.871-9.153c-10.637-6.1-18.982-14.557-25.039-25.365
		c-6.061-10.808-9.088-23.229-9.088-37.265c0-14.207,3.051-26.693,9.152-37.46c6.102-10.765,14.514-19.198,25.234-25.301
		c10.723-6.1,22.967-9.152,36.742-9.152c14.031,0,26.191,3.053,36.479,9.152c10.283,6.103,18.217,14.448,23.797,25.039
		c5.576,10.591,8.367,22.643,8.367,36.153c0,1.396-0.045,3.227-0.131,5.491c-0.088,2.269-0.219,3.792-0.393,4.576h-86.697V147.813z"
		/>
	<path fill="#FFFFFF" d="M1332.858,207.944h22V14.284l-22,11.96V207.944z"/>
	<path fill="#FFFFFF" d="M1429.266,210.966c-8.367,0-16.104-0.896-23.207-2.68c-7.105-1.785-13.295-4.4-18.566-7.846
		c-5.275-3.441-9.371-7.691-12.291-12.749c-2.922-5.054-4.379-10.853-4.379-17.39c0-0.696,0-1.416,0-2.157c0-0.739,0-1.373,0-1.896
		h22.357c0,0.521,0,0.959,0,1.307c0,0.35,0,0.873,0,1.568c0,7.062,3.27,12.444,9.807,16.147c6.537,3.706,15.471,5.558,26.805,5.558
		c6.973,0,13.205-0.697,18.697-2.092c5.49-1.394,9.826-3.529,13.01-6.406c3.18-2.877,4.771-6.492,4.771-10.854
		c0-7.234-3.379-12.398-10.133-15.494c-6.758-3.093-16.848-5.773-30.27-8.041c-7.063-1.22-13.773-2.813-20.137-4.771
		c-6.363-1.961-12.01-4.512-16.934-7.648c-4.924-3.139-8.805-7.039-11.637-11.703c-2.832-4.662-4.248-10.264-4.248-16.801
		c0-8.454,2.504-15.625,7.518-21.509c5.012-5.884,11.789-10.372,20.332-13.468c8.541-3.093,18.043-4.642,28.504-4.642
		c10.111,0,19.438,1.614,27.98,4.838c8.541,3.226,15.406,7.91,20.594,14.056c5.186,6.146,7.779,13.709,7.779,22.686
		c0,0.35,0,0.764,0,1.242c0,0.479,0,0.938,0,1.373h-22.229c0-0.436,0-0.785,0-1.046c0-0.262,0-0.566,0-0.916
		c0-5.054-1.613-9.218-4.838-12.486c-3.227-3.269-7.408-5.708-12.553-7.322c-5.145-1.612-10.635-2.419-16.475-2.419
		c-5.49,0-10.896,0.589-16.213,1.766c-5.318,1.177-9.721,3.117-13.205,5.818c-3.488,2.702-5.23,6.406-5.23,11.113
		s1.635,8.479,4.902,11.311c3.27,2.833,7.889,5.145,13.859,6.93c5.971,1.787,13.01,3.422,21.117,4.903
		c7.234,1.308,14.076,2.941,20.527,4.903c6.449,1.961,12.137,4.469,17.063,7.518c4.924,3.054,8.803,6.91,11.637,11.572
		c2.832,4.664,4.25,10.352,4.25,17.063c0,6.799-1.549,12.728-4.643,17.782c-3.096,5.057-7.367,9.283-12.813,12.683
		c-5.449,3.399-11.727,5.948-18.828,7.649C1444.846,210.117,1437.286,210.966,1429.266,210.966z"/>
</g>
</svg>
