<?xml version="1.0" encoding="utf-8"?>
<!-- Generator: Adobe Illustrator 16.0.0, SVG Export Plug-In . SVG Version: 6.00 Build 0)  -->
<!DOCTYPE svg PUBLIC "-//W3C//DTD SVG 1.1//EN" "http://www.w3.org/Graphics/SVG/1.1/DTD/svg11.dtd">
<svg version="1.1" id="Layer_1" xmlns="http://www.w3.org/2000/svg" xmlns:xlink="http://www.w3.org/1999/xlink" x="0px" y="0px"
	 width="386.031px" height="386.031px" viewBox="0 0 386.031 386.031" enable-background="new 0 0 386.031 386.031"
	 xml:space="preserve">
<g>
	<linearGradient id="SVGID_1_" gradientUnits="userSpaceOnUse" x1="142.4644" y1="-21.3286" x2="142.4643" y2="406.153">
		<stop  offset="0" style="stop-color:#0000FF"/>
		<stop  offset="0.0375" style="stop-color:#0E14EC"/>
		<stop  offset="0.1644" style="stop-color:#3B53AF"/>
		<stop  offset="0.2803" style="stop-color:#5E847F"/>
		<stop  offset="0.3812" style="stop-color:#77A85C"/>
		<stop  offset="0.4632" style="stop-color:#86BE47"/>
		<stop  offset="0.5161" style="stop-color:#8CC63F"/>
		<stop  offset="0.5893" style="stop-color:#9AAE37"/>
		<stop  offset="0.7439" style="stop-color:#BD7124"/>
		<stop  offset="0.9658" style="stop-color:#F61005"/>
		<stop  offset="1" style="stop-color:#FF0000"/>
	</linearGradient>
	<path fill="url(#SVGID_1_)" d="M284.93,362.705c0,0.011-0.013,0.011-0.013,0.011c-27.339,14.87-58.646,23.315-91.901,23.315
		C86.59,386.031,0,299.452,0,193.016c0-48.103,17.945-92.146,47.152-125.994c0.059-0.058,0.418-0.127,0.418-0.185v198.096
		c0,16.181,13.514,30.03,26.898,34.067L284.93,362.705z"/>
	<linearGradient id="SVGID_2_" gradientUnits="userSpaceOnUse" x1="241.7842" y1="-21.3286" x2="241.7842" y2="406.153">
		<stop  offset="0" style="stop-color:#0000FF"/>
		<stop  offset="0.0375" style="stop-color:#0E14EC"/>
		<stop  offset="0.1644" style="stop-color:#3B53AF"/>
		<stop  offset="0.2803" style="stop-color:#5E847F"/>
		<stop  offset="0.3812" style="stop-color:#77A85C"/>
		<stop  offset="0.4632" style="stop-color:#86BE47"/>
		<stop  offset="0.5161" style="stop-color:#8CC63F"/>
		<stop  offset="0.5893" style="stop-color:#9AAE37"/>
		<stop  offset="0.7439" style="stop-color:#BD7124"/>
		<stop  offset="0.9658" style="stop-color:#F61005"/>
		<stop  offset="1" style="stop-color:#FF0000"/>
	</linearGradient>
	<path fill="url(#SVGID_2_)" d="M386.031,193.016c0,53.833-22.242,102.586-57.91,137.628c-0.152,0.151-0.551,0.29-0.551,0.44V121.11
		c0-15.056-10.609-29.706-25.131-34.079L97.537,25.287c0.012-0.012,0.049-0.012,0.061-0.023C125.749,9.187,158.334,0,193.004,0
		C299.44,0,386.031,86.59,386.031,193.016z"/>
	<linearGradient id="SVGID_3_" gradientUnits="userSpaceOnUse" x1="187.0698" y1="-21.3286" x2="187.0698" y2="406.153">
		<stop  offset="0" style="stop-color:#0000FF"/>
		<stop  offset="0.0375" style="stop-color:#0E14EC"/>
		<stop  offset="0.1644" style="stop-color:#3B53AF"/>
		<stop  offset="0.2803" style="stop-color:#5E847F"/>
		<stop  offset="0.3812" style="stop-color:#77A85C"/>
		<stop  offset="0.4632" style="stop-color:#86BE47"/>
		<stop  offset="0.5161" style="stop-color:#8CC63F"/>
		<stop  offset="0.5893" style="stop-color:#9AAE37"/>
		<stop  offset="0.7439" style="stop-color:#BD7124"/>
		<stop  offset="0.9658" style="stop-color:#F61005"/>
		<stop  offset="1" style="stop-color:#FF0000"/>
	</linearGradient>
	<path fill="url(#SVGID_3_)" d="M294.401,113.177L73.57,46.747v218.186c0,1.833,3.77,6.658,7.968,7.922l219.032,66.164V121.11
		C300.57,118.36,297.648,114.162,294.401,113.177z M262.57,264.005c0,1.206,0.027,2.389-0.17,3.526
		c-0.035,0.209-0.01,0.416-0.057,0.626c-0.035,0.22-0.052,0.452-0.121,0.684c-0.046,0.221-0.076,0.441-0.147,0.661
		c-0.115,0.441-0.234,0.882-0.386,1.312c-0.128,0.383-0.276,0.765-0.427,1.137c-0.035,0.081-0.066,0.175-0.113,0.267
		c-0.128,0.302-0.267,0.592-0.405,0.882c-0.047,0.104-0.093,0.196-0.151,0.301c-0.162,0.313-0.335,0.627-0.509,0.917
		c-0.209,0.371-0.441,0.72-0.686,1.067c-2.424,3.572-6.019,6.182-10.311,7.331c-0.022,0.022-0.058,0.022-0.104,0.035
		c-0.268,0.08-0.558,0.138-0.835,0.196c-0.21,0.058-0.43,0.093-0.65,0.127c-0.209,0.047-0.429,0.082-0.649,0.104
		c-0.464,0.082-0.939,0.128-1.427,0.163c-0.476,0.035-0.963,0.058-1.462,0.058c-0.382,0-0.765-0.011-1.16-0.034
		c-0.383-0.023-0.776-0.059-1.17-0.094c-0.257-0.034-0.522-0.069-0.778-0.104c-1.043-0.162-2.075-0.394-3.108-0.707l-106.819-31.863
		c-2.818-0.847-5.708-2.309-8.353-4.258c-0.313-0.219-0.613-0.452-0.903-0.695c-4.293-3.41-7.807-8.12-9.095-13.595
		c-0.081-0.278-0.14-0.567-0.185-0.858c-0.175-0.836-0.279-1.682-0.337-2.552c-0.013-0.162,0.265-0.337,0.253-0.512
		c-0.012-0.219,0.266-0.44,0.266-0.672V122.026c0-0.244-0.277-0.486-0.266-0.73c0.012-0.186-0.115-0.359-0.104-0.534
		c0.047-0.834,0.093-1.646,0.257-2.447c0.079-0.405,0.138-0.8,0.242-1.193c0.417-1.556,1.016-3.028,1.815-4.409
		c0.14-0.255,0.294-0.498,0.444-0.753c0.614-0.952,1.308-1.845,2.084-2.681c0.104-0.127,0.206-0.244,0.321-0.347
		c0.163-0.174,0.313-0.326,0.475-0.477c0.151-0.162,0.313-0.313,0.486-0.451c0.371-0.349,0.766-0.674,1.172-0.986
		c0.325-0.243,0.649-0.487,0.985-0.708c0.129-0.093,0.269,0.142,0.407,0.061c0.336-0.22,0.685-0.3,1.031-0.3h0.012
		c0.569,0,1.149-0.941,1.74-1.209c0.302-0.139,0.604-0.429,0.917-0.546c0.254-0.104,0.511-0.279,0.776-0.373
		c0.383-0.139,0.766-0.294,1.148-0.411c0.313-0.08,0.638-0.194,0.963-0.264c0.22-0.059,0.452-0.114,0.695-0.161
		c0.128-0.034,0.268-0.062,0.406-0.085c1.312-0.245,2.68-0.374,4.071-0.374c0.395,0,0.789,0.009,1.196,0.031
		c0.684,0.035,1.379,0.104,2.063,0.197c1.091,0.162,2.158,0.395,3.19,0.709l105.822,31.874c0.313,0.093,0.627,0.197,0.939,0.302
		c0.627,0.22,1.242,0.464,1.845,0.729c0.302,0.129,0.592,0.269,0.893,0.419l0.871,0.452c0.58,0.313,1.147,0.649,1.704,1.009
		c0.268,0.186,0.546,0.372,0.813,0.557c1.078,0.767,2.1,1.602,3.039,2.506c0.243,0.231,0.476,0.464,0.708,0.696
		c0.452,0.476,0.893,0.963,1.311,1.461c1.043,1.264,1.983,2.61,2.772,4.026c0.788,1.415,1.438,2.899,1.937,4.419
		c0.196,0.602,0.371,1.217,0.511,1.844c0.139,0.615,0.136,1.241,0.228,1.867c0.129,0.939,0.078,1.891,0.078,2.843V264.005z"/>
	<linearGradient id="SVGID_4_" gradientUnits="userSpaceOnUse" x1="188.0698" y1="-21.3286" x2="188.0698" y2="406.153">
		<stop  offset="0" style="stop-color:#0000FF"/>
		<stop  offset="0.0375" style="stop-color:#0E14EC"/>
		<stop  offset="0.1644" style="stop-color:#3B53AF"/>
		<stop  offset="0.2803" style="stop-color:#5E847F"/>
		<stop  offset="0.3812" style="stop-color:#77A85C"/>
		<stop  offset="0.4632" style="stop-color:#86BE47"/>
		<stop  offset="0.5161" style="stop-color:#8CC63F"/>
		<stop  offset="0.5893" style="stop-color:#9AAE37"/>
		<stop  offset="0.7439" style="stop-color:#BD7124"/>
		<stop  offset="0.9658" style="stop-color:#F61005"/>
		<stop  offset="1" style="stop-color:#FF0000"/>
	</linearGradient>
	<polygon fill="url(#SVGID_4_)" points="235.57,161.105 235.57,253.251 140.57,224.67 140.57,132.27 	"/>
</g>
</svg>
